<svg xmlns="http://www.w3.org/2000/svg" width="1791.466" height="1377.045" viewBox="0 0 1791.466 1377.045">
  <g id="Grupo_26" data-name="Grupo 26" transform="translate(141.323 149.473) rotate(-16)">
    <g id="Grupo_16" data-name="Grupo 16" transform="translate(-32.408 8.095)">
      <path id="Caminho_23" data-name="Caminho 23" d="M10.234,12.557C-3.967-15.325,19.9-46.5,6.877-74.165-.42-89.658-17.175-94.1-32.93-95.145c-10.227-.676-20.492-.259-30.681-1.536a132.408,132.408,0,0,1-28.347-6.848c-35.267-12.689-74.834-44.961-77.644-85.122-1.536-21.957,12.5-36.053,29.419-47.462,13.987-9.429,27.2-18.508,37.614-32.03,19.056-24.744,28.55-58.62,19.821-89.209a81.556,81.556,0,0,0-28.4-41.685c-6.827-5.322-14.5-8.442-21.869-12.79-5.43-3.2-8.655-7.33-7.414-13.938.945-5.022,3.027-9.919,4.625-14.759q5.462-16.53,10.922-33.06c2.945-8.938,6.076-18.266,5.572-27.81-.989-18.7-16.71-28-27.843-40.814-6.715-7.727-12.051-17.769-8.124-28.025,1-2.6-2.74-4.419-4.523-2.628-28.581,28.707-38.315,73.287-24.014,111.238.018.046.044.083.063.127-13.727,51.6-19.465,104.944-26.24,157.789-6.879,53.668-15.3,107.521-19.465,161.48-1.91,24.745-1.817,49.609,2.609,74.1,4.242,23.463,11.82,46.144,19.84,68.544,7.987,22.307,16.926,44.532,22.806,67.522,5.552,21.7,4.807,51.22-23.28,54.361-18.856,2.108-37.534-5.877-56.165.262-17.736,5.842-23.474,22.059-16.606,38.834,4.072,9.948,10.908,18.794,12.45,29.646.66,4.64.665,9.962-1.715,14.165-3.669,6.477-10.729,6.347-17.242,7.11-19.033,2.232-18.62,18.917-17.14,34.1.96,9.862,1.921,20.183-5.165,28.118-3.275,3.668-7.337,6.534-10.7,10.113a54.548,54.548,0,0,0-9.581,14.522c-4.878,10.514-7.36,21.921-11.875,32.573a78.729,78.729,0,0,1-18.53,26.394c-15.683,14.882-35.965,24.136-55.725,32.276-8.9,3.666-18.356,6.6-26.9,11.049-10.066,5.236-13.012,13.063-14.98,23.764q-3.644,19.818-7.262,39.641l-1.815,9.91c-.32,1.746-1.354,4.529-.9,6.371.4,1.627,2.193,2.929,3.211,4.189a107.951,107.951,0,0,1,6.488,8.953c12.942,19.893,17.584,41.727,18.095,65.144.5,22.931,9.695,42.7,19.653,62.967,9.028,18.375,19.789,37,35.781,50.222a75.667,75.667,0,0,0,23.777,13.339,2.73,2.73,0,0,0,3.319-1.916q3.19-13.587,6.381-27.177a111.123,111.123,0,0,1,32.572,25.849c1.712,1.98,4.419.2,4.637-1.925a208.537,208.537,0,0,1,29.2-87.138c16.171-26.532,38.577-48.5,57.645-72.864a551.571,551.571,0,0,0,48.337-73.008q10.938-19.786,20.222-40.425c5.132-11.415,11.513-23.591,13.29-36.106,1.409-9.924-1.483-20.4-11.468-24.359-5.578-2.209-11.82-1.83-16.08,1.6-.777-10.66,8.008-19.983,15.151-27.449,8.491-8.876,19.182-17.722,23.664-29.517,5.238-13.791-3.584-24.712-15.264-31.335-5.053-2.865-10.237-5.512-15.359-8.252l-8.8-4.708c-3.788-2.026-5.344-4.1-7.174-7.9-4.873-10.131-11.169-19.48-17.131-28.983-12.915-20.59-26.357-47.872-12.927-71.263a84.485,84.485,0,0,0,55.368.607c7.828,12.757,21.658,19.615,36.3,21.691,18.011,2.553,35.231-2.283,52.079-8.271,9.394-3.339,18.7-6.976,28.3-9.706,8.45-2.4,17.725-2.931,25.825-6.394,14.857-6.352,16.448-22.019,16.6-36.288C4.431,92.454,4.1,83.877,6.6,75.891c2.857-9.128,11.252-14.419,15.03-22.958,6.448-14.573-5.13-28.062-11.4-40.376" transform="translate(467.454 573.577)" fill="#2856ff"/>
    </g>
    <g id="Grupo_17" data-name="Grupo 17" transform="translate(458.377 570.897)">
      <path id="Caminho_24" data-name="Caminho 24" d="M19.377,11.484c1.586-9.313,1.186-19.019,1.312-28.432q.4-30.022-.071-60.051-.231-14.78-.678-29.556c-.27-8.974.262-18.515-1.392-27.361-3.378-18.079-22.4-12.506-35.06-10-35.273,6.974-70.024-10.932-99.611-28.029-34.187-19.753-68.338-39.778-102.023-60.376-16.488-10.082-30.406-21.653-41.778-37.371-10.184-14.076-19.672-28.27-31.993-40.638-24.7-24.791-55.047-42.934-85.076-60.446q-26.1-15.223-52.226-30.409c-8.445-4.916-16.817-10-25.361-14.738-6.625-3.675-14.111-7.172-21.883-6.367-13.834,1.431-19.118,14.513-21.95,26.359-1.618,6.769-2.671,13.786-5.193,20.3a42.844,42.844,0,0,1-15.457,19.5c-11.133,7.692-26.988,7.1-36.923,16.6a16.341,16.341,0,0,0-4.8,14.753c1.25,7.083,6.357,12.713,7.893,19.7,1.885,8.57-1.029,17.492-3.953,25.48-3.34,9.125-6.92,18.169-10.389,27.246q-5.543,14.5-11.084,29c-3.391,8.873-7.2,17.723-9.644,26.916-4.845,18.184.616,34.577,4.882,52.235a417.57,417.57,0,0,1,9.611,56.46c.88,8.8,1.727,17.723,1.773,26.572.036,6.658-.668,14.59-4.918,20.038-5.985,7.674-15.162,3.225-22.534.417a36,36,0,0,0-20.605-1.605c-14.542,2.943-28.329,12.541-43.642,8.4-17.165-4.636-28.643-21.923-36.778-36.573A37.232,37.232,0,0,1-704.83-82.3c-.873-5.245.387-10.406,1.755-15.456,2.462-9.079,5.084-18.124,7.744-27.149,5.593-18.966,11.681-37.847,19.45-56.049,7.4-17.337,16.763-33.1,26.919-48.918,4.722-7.354,9.06-15.25,10.188-24.047.963-7.509-.433-15-2.634-22.173-2.466-8.04-5.81-15.777-8.033-23.9a142.29,142.29,0,0,1-4.4-26.038c-1.425-17.465-.538-35-.2-52.489.571-29.763-1.029-61.923-17.4-87.847-19.3-30.567-54.719-37.441-87.5-45l-56.969-13.146a2.748,2.748,0,0,0-3.039,1.247,16.311,16.311,0,0,0,.783,15.332,2.932,2.932,0,0,0,.852,3.57c9.835,7.609,9.5,21.25,8.485,32.453-1.216,13.483-3.48,26.5-1.837,40.087a105.385,105.385,0,0,0,12.971,39.409c1.821,3.212,4.3,6.735,4.317,10.582.015,4.65-3.928,8.3-6.806,11.51-4.677,5.22-9.388,10.413-14.288,15.425-10.029,10.263-20.918,19.91-33.631,26.726-6.54,3.506-13.422,5.471-20.336,8.013-5.809,2.136-10.982,5.408-13.872,11.073-6.281,12.314-.819,26.2,5.746,37.072,3.939,6.526,8.393,12.826,11.153,19.98a66.7,66.7,0,0,1,4.05,17.589c2.411,24.993-5.338,49.579-5.546,74.5-.1,11.517,1.584,23.066,6.517,33.561,5.206,11.074,13.915,19.974,24.02,26.7,22.075,14.7,48.7,19.3,72.905,29.186,22.7,9.278,45.224,24.073,58.326,45.3A64.037,64.037,0,0,1-695.2,9.383c-.163,11.308-3.289,24.238,3.148,34.475,3.707,5.892,9.877,8.863,16.077,11.488,8.03,3.4,16.079,6.753,24.12,10.128l49.961,20.979q12.059,5.064,24.119,10.128a2.825,2.825,0,0,0,3.278-.41,342.874,342.874,0,0,1,92.356-69.066q13.017-6.651,26.575-12.17c7.495-3.033,16-5.26,22.2-10.714,14.6-12.861-2.257-27.866-5.706-41.267-4.861-18.892,6.8-37.319,16.855-52.252,5.718-8.493,11.565-16.978,15.567-26.45,3.641-8.619,5.359-17.755,6.679-26.974,2.485-17.335,3.3-38.783,18.229-50.6,15.5-12.269,37.321-7.275,52.706,2.308,9.829,6.122,18.342,14.149,26.623,22.176,7.846,7.6,15.537,15.608,21.1,25.082,9.627,16.382,11.565,41.826-7.029,52.977a2.744,2.744,0,0,0-.571,4.253C-266-62.285-270.009-25.065-258.782,4.4c6.286,16.5,17.384,28.865,32.059,38.52,16.845,11.084,35.959,18.663,51.122,32.232a108.313,108.313,0,0,1,33.1,56.067,2.747,2.747,0,0,0,3.969,1.632c29.716-14.042,64.851-4.642,94.405-19.692,14.375-7.319,22.648-19.382,27.31-34.562,2.764-9,4.577-18.454,8.92-26.883C-3.883,43.924,2.689,38.5,8.567,32.2,14.131,26.243,18,19.6,19.377,11.484" transform="translate(885.084 524.586)" fill="#2856ff"/>
    </g>
    <g id="Grupo_14" data-name="Grupo 14" transform="translate(-211.653 225.409)">
      <path id="Caminho_21" data-name="Caminho 21" d="M6.54,7.9c4.7-3.958,8.493-9.814,14.753-11.409,7.1-1.809,14.6,1.548,21.4,3.222C49.366,1.357,56.157,1.9,62.577-.971,75.687-6.837,81.316-21.6,81.985-35.045c.445-8.909-.882-17.782-1.616-26.639-.69-8.337-.951-16.706-.9-25.07.105-16.435,1.418-32.835,3.056-49.181,3.3-32.939,8.057-65.934,6.995-99.12A260.018,260.018,0,0,0,83.2-282.686c-1.778-8.118-3.608-16.744-2.363-25.079,1.236-8.267,6.019-13.57,13-17.7,5.565-3.3,11.2-6.276,14.805-11.863a2.724,2.724,0,0,0-.411-3.278L85.225-359.593a2.92,2.92,0,0,0-4.742,2.238c-8.968-5.784-21.04-4.3-30.236,1.063-14.005,8.165-19.067,24.366-21.184,39.533-1.225,8.78-1.8,17.635-2.858,26.434q-1.707,14.219-4.446,28.292A416.837,416.837,0,0,1,7.625-208.35,412.633,412.633,0,0,1-15.407-153.44l-38.614-51.5a2.79,2.79,0,0,0-3.7-.991c-36.446,19.715-52.8,60.331-63.373,98.148-3.183,11.383-6.048,22.854-9.237,34.235-2.568,9.169-4.8,19.046-10.036,27.145-2.1,3.255-4.916,6.306-8.584,7.767-4.885,1.948-9.994.222-14.953-.467-9.3-1.291-17.925,2.293-25.378,7.641-32.565,23.369-47.382,63.1-67.955,95.933-19.258,30.735-54.048,65.043-36.884,104.367,5.935,13.6,16.5,24.56,26.518,35.231,9.958,10.605,20.8,21.679,25.892,35.613a51.222,51.222,0,0,1,2.592,10.446c.423,3,5.684,2.322,5.324-.736a218.741,218.741,0,0,1,.337-54.855,178.454,178.454,0,0,1,5.191-25.922c2.5-8.594,6.926-14.748,14.42-19.611,5.99-3.888,12.375-7.117,17.626-12.043a51.532,51.532,0,0,0,10.413-13.967c5.519-10.708,7.841-22.715,9.438-34.553,1.712-12.685,2.549-25.5,4.935-38.089,2.2-11.613,5.8-23.554,13.735-32.614,4.66-5.317,10.663-8.682,16.192-12.961C-135.075-.2-131.727-6.8-129.094-14.345a368.891,368.891,0,0,1,22.016-51.646q2.981-5.622,6.175-11.127c1.906-3.285,4.037-8.717,8.635-8.137,3.693.467,7.693,3.258,10.677,5.355a59.84,59.84,0,0,1,9.251,8.224c5.684,6.09,10.352,13.022,14.881,19.988q7.637,11.746,15.214,23.532,7.722,11.951,15.445,23.9c4.018,6.2,8.671,13.053,15.792,15.93C-4.632,14.248,1.51,12.141,6.54,7.9" transform="translate(298.742 361.057)" fill="#2856ff"/>
    </g>
    <g id="Grupo_15" data-name="Grupo 15" transform="translate(-87.178 -83.629)">
      <path id="Caminho_22" data-name="Caminho 22" d="M.606,7.065C2.431,20.129,2.394,33.4,1.676,46.542,1.308,53.267.752,59.98.151,66.688c-.547,6.1-.354,13.259-3.556,18.7-2.814,4.774-7.874,7.7-12.24,10.868-4.213,3.057-8.082,6.555-10.323,11.357-2.058,4.413-2.435,9.2-.05,13.562a2.739,2.739,0,0,0,3.7.992Q1.843,106.952,26,91.745a2.856,2.856,0,0,0,3.76.14C49.672,75.78,65.68,56.074,78.448,33.95c5.949-10.307,12.219-21.321,23-27.241A26.821,26.821,0,0,1,116.5,3.126c6.059.529,10.812,4.577,16.558,6.113C143.789,12.109,150.787,3,152.1-6.65c1.448-10.685-5.179-22.725.947-32.624,4.7-7.6,14.824-9.885,23.1-10.678A118.644,118.644,0,0,1,191.5-50.2c7.081.239,14.206.608,21.107,2.325,15.8,3.929,39.986,23.7,53.689,5.249,5.052-6.8,3.981-15.76,2.48-23.561-1.653-8.594-4.825-17.778-3.3-26.617,1.894-11,13.017-16.017,18.381-25.03,5.174-8.693,4.817-18.911,2.726-28.474-2.341-10.708-6.625-20.895-8.8-31.645a49.687,49.687,0,0,1,3.742-31.562,51.078,51.078,0,0,1,8.922-13.053c3.779-3.982,8.1-6.685,12.647-9.665,5.148-3.377,7.785-7.673,6.89-13.956-.986-6.913-2.655-13.786-4-20.64q-2.062-10.478-4.122-20.958c-.278-1.409-.333-2.893-1.25-4.049a35.227,35.227,0,0,0-3.838-3.536l-8.025-7.4c-8.365-7.71-17.551-15.841-28.788-18.9a27.532,27.532,0,0,0-15.75.233,2.757,2.757,0,0,0-1.631,3.968A272.986,272.986,0,0,1,264.873-245.3c1.029,6.341,2.266,13.292-1.155,19.137-2.9,4.948-7.334,8.746-9.7,14.046-3.937,8.817-2.8,18.508-.654,27.636,2.29,9.724,5.911,19.333,6.44,29.388.213,4.055.486,10.679-3.3,13.355-2.213,1.565-5.249.715-7.649.162q-5.273-1.212-10.476-2.713a203.9,203.9,0,0,1-37.311-14.824c-11.685-6.041-22.256-13.971-33.94-19.976-9.946-5.11-20.884-8.245-32.107-6.418a30.672,30.672,0,0,0-14.049,6.05c-4.523,3.555-7.632,8.463-10.578,13.325a88.874,88.874,0,0,1-9.695,13.558,122.232,122.232,0,0,1-10.822,10.5c-7.828,6.817-16.2,12.984-23.935,19.912-7.478,6.7-14.465,14.278-19.029,23.3-2.479,4.9-3.824,10.488-7.023,15-3.246,4.578-8.584,6.007-13.741,7.333-4.8,1.235-9.562,2.579-13.708,5.409A35.414,35.414,0,0,0,2.381-60.438C-3.15-51.53-5.14-40.869-4.833-30.5-4.456-17.8-1.145-5.463.606,7.065" transform="translate(27.664 322.704)" fill="#2856ff"/>
    </g>
  </g>
</svg>
