<svg xmlns="http://www.w3.org/2000/svg" xmlns:xlink="http://www.w3.org/1999/xlink" width="161.86" height="161.86" viewBox="0 0 161.86 161.86">
  <defs>
    <clipPath id="clip-path">
      <path id="Caminho_60" data-name="Caminho 60" d="M679.791,669.861H651.839V613.956h27.952a27.953,27.953,0,1,1,0,55.905Zm-22.3-5.653h22.3a22.3,22.3,0,1,0,0-44.6h-22.3Z" transform="translate(-651.839 -613.956)" fill="none"/>
    </clipPath>
    <linearGradient id="linear-gradient" y1="0.5" x2="1" y2="0.5" gradientUnits="objectBoundingBox">
      <stop offset="0" stop-color="#fff"/>
      <stop offset="1"/>
    </linearGradient>
    <clipPath id="clip-path-2">
      <path id="Caminho_62" data-name="Caminho 62" d="M901.293,741.508a12.458,12.458,0,1,1-12.458-12.458,12.472,12.472,0,0,1,12.458,12.458,22.274,22.274,0,0,0-8.812-17.743,18.111,18.111,0,1,0,0,35.485A22.274,22.274,0,0,0,901.293,741.508Z" transform="translate(-870.723 -723.397)" fill="none"/>
    </clipPath>
    <linearGradient id="linear-gradient-2" x1="0.294" y1="0.439" x2="1.077" y2="0.672" gradientUnits="objectBoundingBox">
      <stop offset="0.125" stop-color="#fff"/>
      <stop offset="1"/>
    </linearGradient>
  </defs>
  <g id="Grupo_50" data-name="Grupo 50" transform="translate(-39.947 -42.857)">
    <g id="Grupo_49" data-name="Grupo 49" transform="translate(39.947 42.857)">
      <circle id="Elipse_2" data-name="Elipse 2" cx="80.93" cy="80.93" r="80.93" transform="translate(0 0)"/>
      <g id="Grupo_47" data-name="Grupo 47" transform="translate(55.023 51.354)">
        <g id="Grupo_41" data-name="Grupo 41">
          <path id="Caminho_59" data-name="Caminho 59" d="M679.791,669.861H651.839V613.956h27.952a27.953,27.953,0,1,1,0,55.905Zm-22.3-5.653h22.3a22.3,22.3,0,1,0,0-44.6h-22.3Z" transform="translate(-651.839 -613.956)" fill="#f33"/>
        </g>
        <g id="Grupo_43" data-name="Grupo 43">
          <g id="Grupo_42" data-name="Grupo 42" clip-path="url(#clip-path)">
            <rect id="Ret창ngulo_5" data-name="Ret창ngulo 5" width="49.904" height="40.582" transform="translate(17.762 27.953)" fill="url(#linear-gradient)" style="mix-blend-mode: multiply;isolation: isolate"/>
          </g>
        </g>
        <g id="Grupo_44" data-name="Grupo 44" transform="translate(19.682 9.841)">
          <path id="Caminho_61" data-name="Caminho 61" d="M888.833,759.62a18.111,18.111,0,1,1,18.112-18.111A18.132,18.132,0,0,1,888.833,759.62Zm0-30.57a12.458,12.458,0,1,0,12.458,12.458A12.472,12.472,0,0,0,888.833,729.05Z" transform="translate(-870.722 -723.397)" fill="#f33"/>
        </g>
        <g id="Grupo_46" data-name="Grupo 46" transform="translate(19.683 9.841)">
          <g id="Grupo_45" data-name="Grupo 45" clip-path="url(#clip-path-2)">
            <rect id="Ret창ngulo_6" data-name="Ret창ngulo 6" width="49.904" height="40.582" transform="translate(-3.459 -22.47)" fill="url(#linear-gradient-2)" style="mix-blend-mode: multiply;isolation: isolate"/>
          </g>
        </g>
      </g>
      <g id="Grupo_48" data-name="Grupo 48" transform="translate(15.478 15.303)">
        <path id="Caminho_63" data-name="Caminho 63" d="M396.285,390.588l3.219,3.219,4.262-4.26,1.171,1.169-4.264,4.262,4.344,4.348-1.242,1.239-9.87-9.88,6.619-6.614,1.142,1.143Z" transform="translate(-377.553 -368.69)" fill="#f33"/>
        <path id="Caminho_64" data-name="Caminho 64" d="M541.4,299.931l-7.008-12.1,8-4.635.81,1.4-6.483,3.758,2.135,3.684,4.9-2.835.831,1.433-4.9,2.837,2.421,4.18,6.483-3.753.813,1.4Z" transform="translate(-505.409 -276.888)" fill="#f33"/>
        <path id="Caminho_65" data-name="Caminho 65" d="M716.893,246.06a6.457,6.457,0,0,1-7.607,2.137A4.6,4.6,0,0,1,707,245.349l1.769-.482a3.155,3.155,0,0,0,1.511,1.873,3.786,3.786,0,0,0,2.751.13,3.575,3.575,0,0,0,2.258-1.453,2.056,2.056,0,0,0,.255-1.765c-.285-1.046-1.15-1.751-2.815-1.562-.774.088-1.406.16-2.16.242-2.1.245-3.945-.455-4.532-2.6a3.819,3.819,0,0,1,.416-2.972,5.046,5.046,0,0,1,3.115-2.279,5.124,5.124,0,0,1,3.8.311,4.217,4.217,0,0,1,2.067,2.562l-1.768.482a2.777,2.777,0,0,0-1.1-1.477,3.472,3.472,0,0,0-4.676,1.274,2.153,2.153,0,0,0-.12,1.585,2.047,2.047,0,0,0,2.5,1.363c.784-.114,1.505-.167,2.278-.254,2.332-.291,4.168.68,4.75,2.808A3.668,3.668,0,0,1,716.893,246.06Z" transform="translate(-661.497 -232.346)" fill="#f33"/>
        <path id="Caminho_66" data-name="Caminho 66" d="M877.954,214.71l.111,12.338-1.793.016-.108-12.339-4.751.043-.016-1.634,11.275-.1.016,1.635Z" transform="translate(-812.109 -213.032)" fill="#f33"/>
        <path id="Caminho_67" data-name="Caminho 67" d="M1039.486,238.959l.363-1.413,2.995.767,2.747-10.724-2.995-.767.356-1.393,7.709,1.974-.356,1.391-3-.767-2.745,10.726,2.995.767-.361,1.411Z" transform="translate(-965.083 -224.314)" fill="#f33"/>
        <path id="Caminho_68" data-name="Caminho 68" d="M1211.557,292.285l-1.825-1.021,3.042-14.314,1.634.915-2.737,12.157,8.878-8.72,1.616.9Z" transform="translate(-1120.02 -271.203)" fill="#f33"/>
        <path id="Caminho_69" data-name="Caminho 69" d="M1300.761,424l1.668-3.4-3.9-3.763-3.328,1.8-1.29-1.244,13.007-6.867,1.531,1.48-6.384,13.256Zm5.651-11.473L1300.046,416l3.162,3.051Z" transform="translate(-1196.629 -392.77)" fill="#f33"/>
        <path id="Caminho_70" data-name="Caminho 70" d="M1411.16,539.8l11.963-7.215.9,1.5-10.56,6.371,3.724,6.174-1.4.845Z" transform="translate(-1303.335 -503.846)" fill="#f33"/>
        <path id="Caminho_71" data-name="Caminho 71" d="M1514.678,884.325a4.886,4.886,0,0,1-2.221-4.395l-.107-4.156,13.96-.356.105,4.154a4.956,4.956,0,0,1-2.05,4.525,9,9,0,0,1-4.76,1.068A9.431,9.431,0,0,1,1514.678,884.325Zm9.265-2.11a3.452,3.452,0,0,0,.86-2.6l-.062-2.4-10.729.276.06,2.4a3.455,3.455,0,0,0,1.052,2.614c1.029.9,2.7.915,4.436.87C1521.351,883.327,1522.983,883.206,1523.942,882.215Z" transform="translate(-1395.426 -815.855)" fill="#f33"/>
        <path id="Caminho_72" data-name="Caminho 72" d="M1484.246,1023.652l3.781-.3,1.249-5.277-3.247-1.944.412-1.745,12.547,7.691-.49,2.071-14.668,1.27Zm12.759-.992-6.235-3.7-1.012,4.279Z" transform="translate(-1369.47 -942.326)" fill="#f33"/>
        <path id="Caminho_73" data-name="Caminho 73" d="M1343.354,1306.273a4.882,4.882,0,0,1,1.491-4.693l2.831-3.045,10.226,9.517-2.833,3.043a4.957,4.957,0,0,1-4.633,1.8,9.022,9.022,0,0,1-4.148-2.57A9.419,9.419,0,0,1,1343.354,1306.273Zm8.1,4.98a3.453,3.453,0,0,0,2.435-1.258l1.638-1.76-7.859-7.314-1.636,1.761a3.441,3.441,0,0,0-1.078,2.6c.1,1.361,1.289,2.546,2.558,3.727C1348.82,1310.232,1350.071,1311.288,1351.451,1311.252Z" transform="translate(-1241.493 -1200.924)" fill="#f33"/>
        <path id="Caminho_74" data-name="Caminho 74" d="M1214.607,1405.273l.777,1.235-2.621,1.646,5.9,9.383,2.62-1.645.767,1.217-6.746,4.237-.767-1.217,2.623-1.647-5.9-9.383-2.618,1.647-.779-1.235Z" transform="translate(-1118.317 -1298.064)" fill="#f33"/>
        <path id="Caminho_75" data-name="Caminho 75" d="M1099.981,1487.808l1.995-.622,8.294,12.049-1.788.556-6.937-10.342.221,12.435-1.769.55Z" transform="translate(-1020.138 -1372.611)" fill="#f33"/>
        <path id="Caminho_76" data-name="Caminho 76" d="M917.231,1514.168l.606,13.956-9.23.4-.07-1.614,7.478-.325-.184-4.25-5.649.245-.073-1.655,5.649-.244-.21-4.823-7.478.325-.07-1.614Z" transform="translate(-845.421 -1397.167)" fill="#f33"/>
        <path id="Caminho_77" data-name="Caminho 77" d="M741.3,1491.716l1.343,6.244,3.12.682,1.239-5.682,1.713.374-2.977,13.656-4.681-1.02a4.71,4.71,0,0,1-3.2-1.97,3.95,3.95,0,0,1-.473-3.009,3.733,3.733,0,0,1,1.628-2.468,4.007,4.007,0,0,1,1.848-.607l-1.425-6.606Zm.1,12.673,2.965.646,1.046-4.8-2.965-.647c-1.619-.352-2.917.052-3.3,1.783S739.787,1504.035,741.407,1504.389Z" transform="translate(-690.05 -1376.363)" fill="#f33"/>
        <path id="Caminho_78" data-name="Caminho 78" d="M579.573,1442.468a6.458,6.458,0,0,1,7.051,3.567,4.591,4.591,0,0,1-.238,3.644l-1.629-.838a3.161,3.161,0,0,0,.151-2.4,3.772,3.772,0,0,0-1.939-1.953,3.582,3.582,0,0,0-2.649-.455,2.06,2.06,0,0,0-1.379,1.129c-.495.964-.332,2.067,1.021,3.052.629.456,1.145.833,1.756,1.28,1.712,1.237,2.6,3,1.578,4.981a3.808,3.808,0,0,1-2.314,1.909,5.04,5.04,0,0,1-3.836-.423,5.12,5.12,0,0,1-2.592-2.8,4.225,4.225,0,0,1,.207-3.286l1.629.839a2.769,2.769,0,0,0-.19,1.831,3.071,3.071,0,0,0,1.7,1.984,3.039,3.039,0,0,0,2.6.237,2.159,2.159,0,0,0,1.159-1.089,2.045,2.045,0,0,0-.921-2.69c-.654-.448-1.22-.9-1.85-1.353-1.913-1.363-2.613-3.318-1.6-5.279A3.677,3.677,0,0,1,579.573,1442.468Z" transform="translate(-541.742 -1331.75)" fill="#f33"/>
        <path id="Caminho_79" data-name="Caminho 79" d="M434.695,1345.229l-.975,1.083-2.3-2.065-7.394,8.24,2.3,2.066-.961,1.07-5.923-5.316.959-1.069,2.3,2.064,7.393-8.24L427.8,1341l.972-1.085Z" transform="translate(-400.795 -1238.579)" fill="#f33"/>
        <path id="Caminho_80" data-name="Caminho 80" d="M327.9,1230.511a4.891,4.891,0,0,1,4.2,2.576l2.278,3.483-11.7,7.647-2.274-3.482a4.961,4.961,0,0,1-.634-4.933,9.035,9.035,0,0,1,3.494-3.414A9.465,9.465,0,0,1,327.9,1230.511Zm-6.781,6.671a3.459,3.459,0,0,0,.637,2.666l1.316,2.012,8.994-5.876-1.314-2.013a3.449,3.449,0,0,0-2.272-1.672c-1.346-.226-2.783.641-4.235,1.591C322.741,1234.873,321.413,1235.833,321.117,1237.183Z" transform="translate(-309.72 -1139.016)" fill="#f33"/>
        <path id="Caminho_81" data-name="Caminho 81" d="M256.175,1065.1l-3.062,2.235,1.7,5.151,3.785-.047.563,1.7-14.717.021-.667-2.023,11.829-8.767Zm-10.349,7.527,7.253-.109-1.378-4.176Z" transform="translate(-240.925 -986.907)" fill="#f33"/>
        <path id="Caminho_82" data-name="Caminho 82" d="M223.656,925.518a4.882,4.882,0,0,1,2.375,4.318l.257,4.151-13.95.854-.254-4.153a4.964,4.964,0,0,1,1.892-4.6,9,9,0,0,1,4.723-1.236A9.439,9.439,0,0,1,223.656,925.518Zm-9.192,2.439a3.454,3.454,0,0,0-.767,2.634l.145,2.4,10.723-.656-.145-2.4a3.45,3.45,0,0,0-1.145-2.578c-1.059-.864-2.736-.82-4.468-.713C217.017,926.754,215.387,926.933,214.464,927.957Z" transform="translate(-212.069 -860.805)" fill="#f33"/>
        <path id="Caminho_83" data-name="Caminho 83" d="M229.439,755.768l-13.707-2.736,1.809-9.068,1.585.315-1.465,7.349,4.174.832,1.109-5.548,1.625.325-1.108,5.548,4.737.945,1.465-7.349,1.585.319Z" transform="translate(-215.403 -696.222)" fill="#f33"/>
      </g>
    </g>
  </g>
</svg>
